# Blender 4.2.0
# www.blender.org
o Cylinder
v 0.000000 -1.000000 -1.000000
v 0.000000 1.000000 -1.000000
v 0.866025 -1.000000 -0.500000
v 0.866025 1.000000 -0.500000
v 0.866025 -1.000000 0.500000
v 0.866025 1.000000 0.500000
v 0.000000 -1.000000 1.000000
v 0.000000 1.000000 1.000000
v -0.866025 -1.000000 0.500000
v -0.866025 1.000000 0.500000
v -0.866025 -1.000000 -0.500000
v -0.866025 1.000000 -0.500000
vn -0.5000 -0.0000 0.8660
vn -1.0000 -0.0000 -0.0000
vn -0.5000 -0.0000 -0.8660
vn 0.5000 -0.0000 -0.8660
vn 1.0000 -0.0000 -0.0000
vn 0.5000 -0.0000 0.8660
vt 1.000000 0.000000
vt 0.833333 0.000000
vt 0.833333 1.000000
vt 1.000000 1.000000
vt 0.666667 0.000000
vt 0.666667 1.000000
vt 0.500000 0.000000
vt 0.500000 1.000000
vt 0.333333 0.000000
vt 0.333333 1.000000
vt 0.166667 0.000000
vt 0.166667 1.000000
vt -0.000000 0.000000
vt -0.000000 1.000000
s 0
f 1/1/1 3/2/1 4/3/1 2/4/1
f 3/2/2 5/5/2 6/6/2 4/3/2
f 5/5/3 7/7/3 8/8/3 6/6/3
f 7/7/4 9/9/4 10/10/4 8/8/4
f 9/9/5 11/11/5 12/12/5 10/10/5
f 11/11/6 1/13/6 2/14/6 12/12/6
