# Blender 4.2.0
# www.blender.org
o Plane
v -6.614400 0.000000 0.000000
v 0.000000 0.000000 8.000000
v 6.614400 0.000000 0.000000
v 0.000000 0.000000 -8.000000
v 0.000000 0.000000 0.000000
v -6.614400 0.000000 4.000000
v 6.614400 0.000000 -4.000000
v -6.614400 0.000000 -4.000000
v 6.614400 0.000000 4.000000
vn -0.0000 1.0000 -0.0000
vt 0.500000 0.500000
vt 1.000000 0.500000
vt 1.000000 0.750000
vt 0.500000 1.000000
vt 0.000000 0.500000
vt 0.000000 0.750000
vt 0.000000 0.250000
vt 0.500000 0.000000
vt 1.000000 0.250000
s 0
f 5/1/1 3/2/1 7/3/1 4/4/1
f 1/5/1 5/1/1 4/4/1 8/6/1
f 6/7/1 2/8/1 5/1/1 1/5/1
f 2/8/1 9/9/1 3/2/1 5/1/1
